<?xml version="1.0" encoding="UTF-8" standalone="no"?><!DOCTYPE svg PUBLIC "-//W3C//DTD SVG 1.1//EN" "http://www.w3.org/Graphics/SVG/1.1/DTD/svg11.dtd"><svg width="100%" height="100%" viewBox="0 0 4167 2196" version="1.1" xmlns="http://www.w3.org/2000/svg" xmlns:xlink="http://www.w3.org/1999/xlink" xml:space="preserve" style="fill-rule:evenodd;clip-rule:evenodd;stroke-linejoin:round;stroke-miterlimit:1.41421;"><g id="Fallout__US_Prewar_Flag"><g><g><rect x="1360.42" y="0" width="2806.25" height="168.75" style="fill:#c41f40;fill-rule:nonzero;"/><rect x="1360.42" y="168.75" width="2806.25" height="168.75" style="fill:#fff;fill-rule:nonzero;"/><rect x="1360.42" y="337.5" width="2806.25" height="168.75" style="fill:#c41f40;fill-rule:nonzero;"/><rect x="1360.42" y="506.25" width="2806.25" height="168.75" style="fill:#fff;fill-rule:nonzero;"/><rect x="1360.42" y="675" width="2806.25" height="168.75" style="fill:#c41f40;fill-rule:nonzero;"/><rect x="1360.42" y="843.75" width="2806.25" height="168.75" style="fill:#fff;fill-rule:nonzero;"/><path d="M1360.42,1016.67c935.416,0 1870.83,0 2806.25,0l0,168.75c-935.417,0 -1870.79,0 -2806.21,0c-0.083,-56.25 -0.041,-112.5 -0.041,-168.75Z" style="fill:#c41f40;fill-rule:nonzero;"/><path d="M0,1181.25l4166.67,0l0,168.75c-1388.88,0 -2777.79,0 -4166.67,0l0,-168.75Z" style="fill:#fff;fill-rule:nonzero;"/><path d="M0,1350c1388.88,0 2777.79,0 4166.67,0l0,168.792c-1388.88,-0.084 -2777.79,0 -4166.67,-0.042l0,-168.75Z" style="fill:#c41f40;fill-rule:nonzero;"/><path d="M0,1518.75c1388.88,0.042 2777.79,-0.042 4166.67,0.042l0,168.708c-1388.88,0 -2777.79,0 -4166.67,0l0,-168.75Z" style="fill:#fff;fill-rule:nonzero;"/><rect x="0" y="1687.5" width="4166.67" height="168.75" style="fill:#c41f40;fill-rule:nonzero;"/><rect x="0" y="1856.25" width="4166.67" height="168.75" style="fill:#fff;fill-rule:nonzero;"/><rect x="0" y="2025" width="4166.67" height="170.833" style="fill:#c41f40;fill-rule:nonzero;"/></g><path d="M0,0l1360.42,0l0,1012.5c0,56.25 -0.042,112.5 0.041,168.75c-453.5,0 -906.958,0 -1360.46,0l0,-1181.25Z" style="fill:#1e2d60;fill-rule:nonzero;"/><g><path d="M1154.68,551.426l16.371,50.384l52.977,0l-42.859,31.139l16.371,50.384l-42.86,-31.139l-42.859,31.139l16.371,-50.384l-42.86,-31.139l52.978,0l16.37,-50.384Z" style="fill:#ebebeb;"/><path d="M875.773,874.671l16.371,50.384l52.977,0l-42.86,31.14l16.371,50.384l-42.859,-31.139l-42.86,31.139l16.371,-50.384l-42.859,-31.14l52.977,0l16.371,-50.384Z" style="fill:#ebebeb;"/><path d="M1069.17,742.764l16.371,50.384l52.977,0l-42.86,31.139l16.371,50.384l-42.859,-31.139l-42.859,31.139l16.37,-50.384l-42.859,-31.139l52.977,0l16.371,-50.384Z" style="fill:#ebebeb;"/><path d="M484.686,874.671l16.37,50.384l52.977,0l-42.859,31.14l16.371,50.384l-42.859,-31.139l-42.86,31.139l16.371,-50.384l-42.859,-31.14l52.977,0l16.371,-50.384Z" style="fill:#ebebeb;"/><path d="M291.284,742.764l16.371,50.384l52.977,0l-42.859,31.139l16.371,50.384l-42.86,-31.139l-42.859,31.139l16.371,-50.384l-42.859,-31.139l52.977,0l16.37,-50.384Z" style="fill:#ebebeb;"/><path d="M205.779,551.426l16.371,50.384l52.977,0l-42.859,31.139l16.37,50.384l-42.859,-31.139l-42.859,31.139l16.371,-50.384l-42.86,-31.139l52.977,0l16.371,-50.384Z" style="fill:#ebebeb;"/><path d="M284.778,360.088l16.371,50.384l52.977,0l-42.859,31.139l16.371,50.384l-42.86,-31.139l-42.859,31.139l16.371,-50.384l-42.86,-31.139l52.978,0l16.37,-50.384Z" style="fill:#ebebeb;"/><path d="M472.186,191.881l16.37,50.384l52.977,0l-42.859,31.139l16.371,50.384l-42.859,-31.139l-42.86,31.139l16.371,-50.384l-42.859,-31.139l52.977,0l16.371,-50.384Z" style="fill:#ebebeb;"/><path d="M680.229,92.708l16.371,50.385l52.977,0l-42.859,31.139l16.371,50.384l-42.86,-31.139l-42.859,31.139l16.371,-50.384l-42.86,-31.139l52.977,0l16.371,-50.385Z" style="fill:#ebebeb;"/><path d="M888.273,177.083l16.371,50.385l52.977,0l-42.86,31.139l16.371,50.384l-42.859,-31.139l-42.86,31.139l16.371,-50.384l-42.859,-31.139l52.977,0l16.371,-50.385Z" style="fill:#ebebeb;"/><path d="M1075.68,360.088l16.371,50.384l52.977,0l-42.859,31.139l16.37,50.384l-42.859,-31.139l-42.859,31.139l16.371,-50.384l-42.86,-31.139l52.977,0l16.371,-50.384Z" style="fill:#ebebeb;"/><path d="M680.229,915.078l16.371,50.385l52.977,0l-42.859,31.139l16.371,50.384l-42.86,-31.139l-42.859,31.139l16.371,-50.384l-42.86,-31.139l52.977,0l16.371,-50.385Z" style="fill:#ebebeb;"/><path d="M680.229,371.986l49.113,151.152l158.931,0l-128.578,93.418l49.112,151.152l-128.578,-93.417l-128.578,93.417l49.113,-151.152l-128.578,-93.418l158.931,0l49.112,-151.152Z" style="fill:#ebebeb;"/></g></g></g></svg>